<svg width="18" height="18" viewBox="0 0 18 18" fill="none" xmlns="http://www.w3.org/2000/svg">
<path d="M8.99999 1.56653C9.33136 1.56653 9.59999 1.83516 9.59999 2.16653V14.3807L12.3559 11.6137C12.5897 11.3789 12.9696 11.3781 13.2044 11.6119C13.4392 11.8458 13.44 12.2257 13.2061 12.4605L9.42511 16.2568C9.31252 16.3699 9.15954 16.4334 8.99999 16.4334C8.84044 16.4334 8.68746 16.3699 8.57487 16.2568L4.79384 12.4605C4.56 12.2257 4.56076 11.8458 4.79555 11.6119C5.03034 11.3781 5.41024 11.3789 5.64408 11.6137L8.39999 14.3807V2.16653C8.39999 1.83516 8.66862 1.56653 8.99999 1.56653Z" fill="#7CABE3"/>
</svg>
