<svg width="18" height="18" viewBox="0 0 18 18" fill="none" xmlns="http://www.w3.org/2000/svg">
<path d="M8.99999 16.4334C8.66861 16.4334 8.39999 16.1648 8.39999 15.8334L8.39999 3.61924L5.64408 6.38632C5.41024 6.62111 5.03034 6.62188 4.79555 6.38804C4.56076 6.1542 4.56 5.7743 4.79384 5.53951L8.57487 1.74315C8.68746 1.63011 8.84044 1.56656 8.99999 1.56656C9.15954 1.56656 9.31252 1.63011 9.42511 1.74315L13.2061 5.53951C13.44 5.7743 13.4392 6.1542 13.2044 6.38804C12.9696 6.62188 12.5897 6.62111 12.3559 6.38632L9.59999 3.61924L9.59999 15.8334C9.59999 16.1648 9.33136 16.4334 8.99999 16.4334Z" fill="#7D8CA1"/>
</svg>
