<svg width="18" height="18" viewBox="0 0 18 18" fill="none" xmlns="http://www.w3.org/2000/svg">
<path d="M8.99999 16.4334C8.66861 16.4334 8.39999 16.1648 8.39999 15.8334L8.39999 3.61921L5.64408 6.38629C5.41024 6.62108 5.03034 6.62185 4.79555 6.38801C4.56076 6.15417 4.56 5.77427 4.79384 5.53948L8.57487 1.74312C8.68746 1.63008 8.84044 1.56653 8.99999 1.56653C9.15954 1.56653 9.31252 1.63008 9.42511 1.74312L13.2061 5.53948C13.44 5.77427 13.4392 6.15417 13.2044 6.38801C12.9696 6.62185 12.5897 6.62108 12.3559 6.38629L9.59999 3.61921L9.59999 15.8334C9.59999 16.1648 9.33136 16.4334 8.99999 16.4334Z" fill="#7CABE3"/>
</svg>
