<svg width="20" height="20" viewBox="0 0 20 20" fill="none" xmlns="http://www.w3.org/2000/svg">
<path d="M18.1364 2.80488C18.3967 2.54453 18.3967 2.12242 18.1364 1.86207C17.876 1.60172 17.4539 1.60172 17.1936 1.86207L10 9.05561L2.80651 1.86207C2.54616 1.60172 2.12405 1.60172 1.8637 1.86207C1.60335 2.12242 1.60335 2.54453 1.8637 2.80488L9.05723 9.99842L1.86247 17.1932C1.60212 17.4535 1.60212 17.8756 1.86247 18.136C2.12282 18.3963 2.54493 18.3963 2.80528 18.136L10 10.9412L17.1948 18.136C17.4551 18.3963 17.8773 18.3963 18.1376 18.136C18.398 17.8756 18.398 17.4535 18.1376 17.1932L10.9428 9.99842L18.1364 2.80488Z" fill="#7D8CA1"/>
</svg>
