<svg width="16" height="16" viewBox="0 0 16 16" fill="none" xmlns="http://www.w3.org/2000/svg">
<path d="M7.33334 4.62963C7.33334 5.16146 6.88563 5.59259 6.33334 5.59259C5.78106 5.59259 5.33334 5.16146 5.33334 4.62963C5.33334 4.0978 5.78106 3.66666 6.33334 3.66666C6.88563 3.66666 7.33334 4.0978 7.33334 4.62963Z" fill="#B3B3B3"/>
<path d="M7.33334 11.3704C7.33334 11.9022 6.88563 12.3333 6.33334 12.3333C5.78106 12.3333 5.33334 11.9022 5.33334 11.3704C5.33334 10.8385 5.78106 10.4074 6.33334 10.4074C6.88563 10.4074 7.33334 10.8385 7.33334 11.3704Z" fill="#B3B3B3"/>
<path d="M7.33334 8C7.33334 8.53183 6.88563 8.96296 6.33334 8.96296C5.78106 8.96296 5.33334 8.53183 5.33334 8C5.33334 7.46817 5.78106 7.03703 6.33334 7.03703C6.88563 7.03703 7.33334 7.46817 7.33334 8Z" fill="#B3B3B3"/>
<path d="M10.6667 4.62963C10.6667 5.16146 10.219 5.59259 9.66668 5.59259C9.11439 5.59259 8.66668 5.16146 8.66668 4.62963C8.66668 4.0978 9.11439 3.66666 9.66668 3.66666C10.219 3.66666 10.6667 4.0978 10.6667 4.62963Z" fill="#B3B3B3"/>
<path d="M10.6667 11.3704C10.6667 11.9022 10.219 12.3333 9.66668 12.3333C9.11439 12.3333 8.66668 11.9022 8.66668 11.3704C8.66668 10.8385 9.11439 10.4074 9.66668 10.4074C10.219 10.4074 10.6667 10.8385 10.6667 11.3704Z" fill="#B3B3B3"/>
<path d="M10.6667 8C10.6667 8.53183 10.219 8.96296 9.66668 8.96296C9.11439 8.96296 8.66668 8.53183 8.66668 8C8.66668 7.46817 9.11439 7.03703 9.66668 7.03703C10.219 7.03703 10.6667 7.46817 10.6667 8Z" fill="#B3B3B3"/>
</svg>
